<svg xmlns="http://www.w3.org/2000/svg" viewBox="0 0 1600 512" width="1600" height="512"><defs><linearGradient id="rc" x1="0" y1="0" x2="1" y2="1"><stop offset="0" stop-color="#edc7c0"></stop><stop offset="0.28" stop-color="#e0a89f"></stop><stop offset="0.55" stop-color="#d5998f"></stop><stop offset="0.8" stop-color="#cd8e84"></stop><stop offset="1" stop-color="#bd7c72"></stop></linearGradient></defs><g transform="translate(0.000000,512.000000) scale(0.100000,-0.100000)" fill="url(#rc)" fill-rule="evenodd"><path d="M2810 4840 c-212 -23 -334 -40 -415 -59 -535 -121 -967 -336 -1230 -613 -449 -472 -444 -1020 12 -1174 224 -76 629 0 587 110 -9 23 -43 20 -131 -14 -399 -155 -697 53 -618 430 109 518 727 1021 1450 1180 156 35 178 39 255 49 379 51 757 18 1055 -91 189 -69 193 -73 106 -111 -245 -106 -663 -478 -969 -862 -53 -66 -115 -140 -137 -165 -23 -25 -63 -76 -89 -115 -127 -190 -158 -220 -225 -221 -112 -1 -155 -59 -108 -147 26 -50 27 -52 10 -74 -10 -12 -45 -57 -77 -100 -33 -43 -81 -103 -106 -133 -25 -30 -57 -71 -70 -90 -13 -19 -42 -57 -65 -85 -23 -27 -50 -63 -60 -80 -24 -39 -130 -150 -292 -306 -459 -443 -901 -578 -1238 -377 -92 54 -130 141 -121 274 6 84 -1 104 -36 104 -41 0 -58 -38 -58 -133 0 -428 605 -558 1205 -260 263 131 699 531 941 863 180 246 179 245 215 244 103 -3 102 -2 153 -137 25 -67 53 -152 61 -189 9 -37 20 -80 26 -95 6 -16 28 -91 49 -168 20 -77 55 -181 78 -230 144 -320 162 -348 348 -570 147 -176 220 -239 369 -320 504 -275 1100 -163 1400 264 48 69 54 91 30 111 -24 20 -49 7 -83 -45 -125 -189 -313 -318 -544 -376 -107 -27 -351 -24 -433 5 -310 111 -541 330 -737 699 -130 243 -156 296 -197 402 -22 55 -57 138 -79 185 -21 47 -45 103 -52 125 -17 53 -127 275 -147 298 -24 26 -18 27 153 38 88 5 182 13 209 19 28 5 91 16 140 25 352 63 736 321 951 638 131 194 164 522 72 725 -28 61 -183 241 -246 284 -170 117 -429 209 -727 258 -87 14 -484 21 -585 10z m1263 -361 c128 -114 188 -272 169 -448 -21 -202 -144 -461 -289 -607 -295 -299 -635 -453 -1038 -471 -141 -6 -141 -6 -184 45 -51 62 -52 60 39 177 38 50 106 144 151 210 45 66 115 163 154 215 40 52 113 151 164 220 288 391 507 601 724 695 46 20 47 20 110 -36z"></path><path d="M11326 4829 c-70 -17 -207 -82 -308 -146 -24 -15 -32 -16 -60 -4 -408 165 -930 178 -1393 34 -640 -199 -1103 -541 -1330 -984 -264 -515 -113 -913 345 -912 143 1 290 54 290 105 0 31 -28 32 -123 2 -244 -76 -441 -8 -493 172 -21 74 -13 257 15 357 132 459 658 926 1309 1161 286 103 661 150 887 110 50 -8 128 -21 175 -29 47 -7 94 -16 105 -20 53 -20 155 -69 155 -75 0 -4 -35 -34 -77 -66 -199 -149 -568 -561 -818 -914 -38 -54 -90 -125 -115 -158 -25 -33 -49 -67 -55 -76 -5 -9 -28 -19 -50 -22 -110 -15 -157 -89 -98 -156 18 -21 10 -38 -62 -128 -29 -36 -85 -114 -125 -175 -39 -60 -89 -131 -110 -156 -21 -25 -51 -66 -67 -91 -16 -24 -50 -71 -76 -104 -48 -60 -221 -281 -305 -389 -153 -197 -412 -420 -597 -512 -294 -149 -684 -108 -782 81 -38 74 -54 194 -34 263 12 42 -13 79 -46 69 -56 -18 -75 -233 -29 -324 54 -107 183 -213 301 -248 73 -22 356 -25 445 -5 220 50 423 148 590 284 251 204 601 598 797 897 31 47 82 119 113 160 31 41 78 111 105 155 101 168 100 167 144 145 69 -37 185 -46 311 -26 126 20 193 -2 266 -88 343 -399 -61 -1147 -732 -1357 -135 -42 -391 -42 -520 1 -99 33 -224 160 -224 228 0 39 -46 56 -71 26 -48 -58 39 -210 156 -272 165 -87 241 -105 440 -103 282 2 505 59 714 183 245 145 400 309 490 521 65 152 73 198 69 363 -3 143 -3 143 -58 250 -61 120 -119 186 -226 256 -35 23 -64 45 -64 49 0 4 46 22 103 39 351 109 600 325 728 632 40 95 53 305 25 400 -47 163 -122 267 -248 345 -32 20 -58 39 -58 44 0 32 244 134 346 144 95 9 104 13 104 40 0 48 -48 55 -174 24z m-284 -313 c24 -24 64 -85 92 -139 49 -96 49 -96 48 -229 -1 -165 -10 -205 -79 -348 -117 -241 -306 -430 -530 -530 -144 -64 -166 -67 -270 -42 -110 27 -205 42 -261 42 -44 0 -44 0 -12 58 18 31 58 94 89 140 31 46 74 111 95 145 260 413 480 698 689 895 68 63 83 64 139 8z"></path><path d="M15003 3734 c-7 -3 -51 -56 -100 -117 -48 -62 -106 -132 -128 -157 -23 -25 -62 -74 -87 -110 -95 -133 -77 -122 -213 -121 -122 2 -593 -16 -652 -25 -17 -3 -67 -28 -110 -56 -87 -57 -181 -98 -227 -98 -40 0 -61 -14 -53 -34 5 -13 22 -16 83 -16 86 0 143 23 258 104 68 47 102 49 534 30 213 -9 213 -9 147 -89 -37 -44 -86 -106 -108 -138 -23 -32 -70 -95 -105 -140 -34 -45 -88 -120 -120 -167 -167 -248 -203 -290 -390 -455 -344 -303 -445 -263 -213 85 32 47 81 121 111 165 29 44 76 114 104 155 27 41 67 97 88 125 60 79 49 115 -35 115 -75 0 -94 -19 -240 -234 -27 -39 -79 -103 -115 -142 -37 -40 -98 -107 -137 -149 -38 -43 -101 -103 -140 -134 -38 -30 -92 -75 -118 -98 -49 -43 -142 -93 -173 -93 -60 0 120 320 281 501 18 20 49 61 68 90 19 30 58 83 87 119 86 107 88 135 9 145 -54 7 -93 -11 -128 -60 -17 -24 -60 -75 -95 -113 -35 -38 -83 -98 -106 -132 -62 -91 -269 -294 -444 -437 -206 -167 -274 -116 -135 101 29 44 95 150 146 235 52 85 120 186 151 225 119 148 126 196 31 196 -42 0 -54 -5 -91 -37 -25 -23 -43 -33 -45 -26 -75 220 -443 100 -707 -231 -40 -50 -92 -119 -116 -153 -57 -83 -230 -232 -363 -311 -296 -179 -436 -108 -318 160 34 77 34 77 80 83 318 44 589 235 599 424 13 231 -315 191 -585 -72 -57 -56 -113 -117 -125 -136 -47 -78 -113 -161 -128 -161 -50 0 -74 -49 -41 -84 18 -20 18 -25 5 -91 -32 -165 -1 -241 121 -297 132 -60 372 15 550 171 98 87 95 87 95 -1 0 -126 47 -183 148 -182 90 0 256 103 361 223 62 72 69 72 41 2 -64 -163 49 -280 206 -215 49 20 217 135 265 181 37 35 37 35 32 -29 -10 -138 79 -206 213 -162 64 22 246 149 313 220 59 62 72 64 43 7 -44 -85 -36 -171 19 -217 75 -63 203 -20 414 139 127 96 128 97 113 54 -14 -40 4 -154 29 -181 81 -89 209 -62 411 88 127 95 127 95 132 6 7 -117 37 -152 133 -152 84 0 136 27 296 154 45 36 87 66 92 66 19 0 -45 -107 -176 -295 -27 -38 -67 -97 -89 -130 -125 -188 -365 -478 -558 -676 -522 -533 -1044 -704 -1481 -483 -113 58 -185 176 -206 338 -12 93 -74 91 -79 -3 -13 -220 184 -432 463 -499 95 -22 418 -22 521 1 568 127 1133 633 1630 1460 26 43 37 52 101 76 283 111 755 544 619 569 -13 3 -65 -42 -175 -150 -86 -85 -178 -170 -206 -190 -63 -44 -215 -131 -221 -125 -3 2 14 34 36 70 22 37 40 69 40 72 0 8 91 156 145 235 186 274 275 410 275 423 0 25 -25 37 -77 37 -52 0 -52 0 -125 -85 -40 -47 -86 -105 -103 -129 -185 -264 -592 -636 -698 -636 -56 0 -3 130 122 300 31 41 92 129 136 195 45 66 111 162 148 213 86 119 83 152 -11 152 -73 0 -83 -10 -241 -230 -176 -245 -437 -499 -601 -584 -221 -115 -211 -13 35 359 77 116 172 251 211 300 39 50 101 133 139 185 161 225 220 299 245 305 13 4 212 3 442 -1 447 -7 448 -7 448 42 0 53 -11 54 -437 54 -216 0 -393 4 -393 9 0 4 13 26 30 47 16 21 62 85 102 142 78 110 93 130 151 209 41 56 47 87 18 103 -20 10 -76 12 -98 4z m-3349 -960 c72 -71 -169 -289 -413 -375 -71 -25 -71 -22 -17 58 144 214 368 380 430 317z m839 -26 c39 -46 7 -152 -75 -243 -24 -27 -66 -79 -93 -115 -109 -144 -298 -321 -423 -396 -137 -83 -139 1 -4 236 76 133 140 215 283 362 168 171 259 217 312 156z"></path><path d="M5212 3017 c-60 -19 -125 -89 -172 -184 -81 -165 -339 -378 -482 -398 -58 -8 -58 -4 -14 72 98 168 91 364 -15 426 -99 58 -176 45 -259 -42 -32 -34 -67 -61 -85 -65 -202 -48 -475 -425 -475 -657 0 -183 173 -290 340 -210 107 51 303 229 371 336 33 52 33 52 106 59 153 12 243 62 401 218 56 56 102 96 102 88 0 -52 -42 -353 -56 -399 -46 -161 -146 -250 -266 -239 -110 11 -117 109 -12 159 67 32 25 108 -52 96 -83 -14 -127 -72 -121 -160 16 -256 452 -265 585 -11 6 12 48 39 94 62 46 22 97 50 114 61 31 21 31 21 31 -37 1 -192 70 -276 228 -276 142 0 297 67 461 199 48 39 94 75 103 82 14 11 16 3 13 -76 -6 -145 35 -201 147 -201 96 0 191 59 359 223 56 55 60 55 37 0 -32 -76 -4 -177 57 -209 133 -69 372 87 691 449 59 67 66 84 45 105 -23 23 -39 11 -161 -114 -294 -305 -508 -440 -507 -319 1 43 170 344 309 548 147 217 160 246 120 268 -34 18 -80 2 -127 -44 -48 -46 -46 -47 -84 23 -43 77 -191 93 -306 33 -176 -90 -325 -221 -419 -367 -118 -184 -408 -419 -591 -480 -188 -63 -263 2 -203 177 40 115 63 143 134 157 288 55 481 174 557 343 73 159 -64 273 -251 208 -185 -64 -300 -158 -449 -368 -46 -65 -102 -137 -124 -161 -35 -37 -201 -152 -220 -152 -3 0 -6 56 -6 124 0 90 -4 135 -16 167 -48 127 -19 286 65 362 79 72 125 37 66 -49 -63 -91 -13 -147 58 -64 114 134 36 288 -121 237z m-716 -151 c50 -37 -55 -415 -113 -404 -72 14 -103 168 -54 273 13 28 23 63 23 78 -1 52 96 88 144 53z m1619 -36 c7 -23 -24 -99 -61 -148 -63 -82 -309 -222 -391 -222 -63 0 164 257 323 365 48 32 119 35 129 5z m851 -25 c34 -51 13 -146 -49 -221 -13 -16 -39 -51 -57 -79 -77 -114 -317 -361 -414 -426 -216 -143 -216 -1 -1 326 189 288 459 495 521 400z m-2737 -294 c19 -36 66 -83 107 -107 26 -15 15 -34 -81 -146 -146 -170 -208 -216 -305 -226 -66 -6 -73 7 -68 117 6 134 130 369 272 519 41 43 41 43 49 -38 4 -47 15 -97 26 -119z"></path></g></svg>