<svg xmlns="http://www.w3.org/2000/svg" viewBox="0 0 1200.000000 906.000000" width="1200" height="906"><defs><linearGradient id="rc" x1="0.05" y1="0.02" x2="0.9" y2="1"><stop offset="0" stop-color="#edc7c0"></stop><stop offset="0.28" stop-color="#e0a89f"></stop><stop offset="0.55" stop-color="#d5998f"></stop><stop offset="0.8" stop-color="#cd8e84"></stop><stop offset="1" stop-color="#bd7c72"></stop></linearGradient></defs><g transform="translate(0.000000,906.000000) scale(0.100000,-0.100000)" fill="url(#rc)" fill-rule="evenodd"><path d="M4745 8780 c-33 -4 -98 -8 -145 -9 -47 -1 -114 -6 -150 -12 -36 -5 -114 -14 -175 -20 -178 -16 -256 -25 -320 -38 -33 -7 -82 -16 -110 -22 -110 -22 -232 -50 -345 -80 -19 -5 -87 -22 -150 -39 -128 -33 -271 -81 -560 -188 -685 -254 -1273 -667 -1667 -1170 -162 -207 -333 -554 -363 -737 -6 -38 -15 -90 -20 -115 -28 -143 -21 -255 27 -450 74 -301 355 -549 738 -651 69 -19 547 -19 625 -1 178 43 363 107 403 140 23 20 22 67 -3 92 -25 25 -27 25 -78 0 -58 -28 -203 -74 -297 -95 -44 -9 -96 -22 -115 -28 -56 -18 -355 -14 -410 5 -25 9 -65 21 -90 28 -166 45 -278 106 -355 193 -48 56 -127 205 -153 290 -23 78 -27 246 -7 342 9 44 21 105 27 135 38 204 240 588 426 810 257 307 638 629 964 815 9 6 59 35 110 65 80 47 223 118 428 212 90 41 331 135 380 147 25 7 54 16 65 21 11 5 67 23 125 40 58 17 115 36 128 41 13 5 34 9 47 9 13 0 34 4 47 9 13 5 59 16 103 26 44 9 105 23 135 30 139 32 281 56 400 66 337 29 685 36 890 19 240 -21 305 -28 320 -34 8 -3 44 -10 80 -16 82 -12 125 -22 225 -50 44 -12 106 -28 138 -36 145 -35 176 -44 240 -68 38 -14 103 -44 145 -65 43 -22 111 -55 153 -74 78 -35 166 -91 229 -145 31 -27 33 -32 20 -45 -19 -19 -192 -119 -291 -168 -41 -20 -95 -52 -120 -71 -24 -19 -89 -65 -144 -103 -147 -101 -290 -209 -375 -284 -41 -37 -127 -110 -191 -163 -155 -128 -623 -598 -769 -773 -65 -77 -150 -176 -190 -220 -39 -44 -86 -100 -103 -125 -17 -25 -47 -65 -67 -90 -119 -148 -209 -263 -313 -402 l-117 -157 -48 14 c-72 22 -159 19 -207 -8 -94 -53 -92 -158 5 -266 37 -42 37 -40 -5 -93 -77 -95 -93 -115 -132 -173 -22 -33 -65 -88 -96 -122 -30 -34 -70 -83 -88 -110 -52 -78 -237 -320 -319 -419 -41 -51 -95 -120 -120 -155 -25 -35 -76 -98 -115 -139 -38 -42 -102 -114 -142 -161 -120 -141 -406 -416 -546 -524 -333 -258 -643 -432 -831 -466 -28 -5 -78 -13 -111 -19 -33 -5 -78 -14 -100 -19 -66 -17 -373 -14 -447 5 -278 70 -492 204 -544 344 -67 176 -71 222 -38 395 6 34 -33 85 -66 85 -18 0 -51 -32 -70 -69 -18 -35 -15 -251 5 -326 30 -116 135 -264 254 -359 124 -99 197 -129 436 -180 118 -24 416 -42 484 -28 31 7 75 12 97 12 21 0 68 6 104 14 36 8 92 20 125 26 33 7 78 18 100 24 22 7 58 19 80 25 100 31 307 121 400 174 22 12 72 40 110 62 299 167 675 492 1100 950 72 77 159 178 195 224 36 46 97 122 135 170 39 48 101 125 138 172 37 46 91 119 120 161 65 97 191 263 229 304 l29 31 77 -14 c42 -8 104 -18 136 -21 37 -5 62 -13 67 -22 8 -17 34 -76 74 -170 27 -63 78 -219 95 -290 4 -19 17 -69 29 -110 11 -41 21 -87 21 -102 0 -15 4 -37 9 -50 18 -47 39 -125 51 -183 6 -33 25 -114 42 -180 17 -66 48 -185 68 -265 21 -80 56 -199 79 -265 24 -66 46 -133 51 -150 5 -16 23 -68 40 -115 17 -47 38 -105 47 -130 8 -25 38 -92 65 -149 27 -57 62 -137 79 -178 16 -40 56 -117 90 -170 33 -53 75 -126 94 -163 18 -36 49 -86 67 -111 18 -24 61 -82 95 -129 33 -47 70 -94 82 -104 12 -11 21 -27 21 -36 0 -21 -73 -122 -147 -205 -30 -33 -75 -89 -101 -125 -183 -258 -680 -745 -917 -896 -144 -93 -302 -187 -360 -216 -33 -16 -69 -34 -79 -40 -20 -11 -52 -22 -116 -39 -80 -23 -98 -28 -150 -48 -219 -85 -651 -97 -860 -24 -41 14 -79 29 -85 33 -5 4 -37 22 -70 40 -232 126 -322 332 -250 576 8 25 -37 84 -64 84 -28 0 -77 -61 -91 -113 -23 -85 -9 -250 28 -330 59 -128 188 -268 295 -321 59 -29 206 -78 287 -95 30 -7 75 -17 100 -23 84 -19 416 -22 500 -4 41 9 89 16 105 16 17 0 73 9 125 21 52 11 113 23 135 26 66 9 257 79 337 123 10 6 23 10 29 10 35 0 284 135 459 248 292 189 731 576 950 836 37 45 99 114 136 154 l69 73 70 -48 c39 -27 98 -69 132 -95 34 -25 82 -55 105 -66 279 -132 428 -172 662 -179 249 -8 416 36 416 112 0 41 -24 51 -88 36 -372 -83 -655 -34 -905 156 -63 48 -267 241 -267 253 0 6 123 162 222 280 21 25 65 88 98 140 55 87 141 211 351 509 42 59 89 130 104 157 42 72 255 393 267 400 5 3 26 -7 46 -23 108 -86 371 -106 682 -52 209 36 258 33 385 -22 149 -66 341 -237 420 -374 96 -168 135 -277 135 -373 0 -26 5 -82 12 -125 15 -101 5 -177 -54 -402 -17 -65 -41 -127 -64 -170 -12 -22 -43 -80 -69 -130 -84 -161 -173 -272 -400 -500 -144 -143 -219 -201 -425 -325 -258 -156 -416 -220 -650 -260 -25 -5 -63 -13 -85 -18 -121 -31 -156 -34 -335 -29 -331 10 -476 42 -690 154 -204 107 -332 240 -353 367 -11 71 -50 86 -99 39 -61 -59 -29 -149 101 -285 133 -139 181 -174 341 -246 78 -35 243 -92 267 -92 9 0 30 -4 47 -9 86 -26 354 -55 506 -55 141 0 479 32 560 52 92 24 206 53 235 61 42 12 223 78 265 97 19 8 44 19 55 24 335 139 623 360 886 680 49 60 60 76 109 165 18 33 42 76 53 95 70 125 83 155 112 270 9 36 20 81 26 100 46 176 45 275 -10 575 -12 69 -51 151 -115 247 -25 37 -52 81 -62 99 -24 47 -102 128 -226 234 -88 76 -129 102 -242 158 -75 37 -143 67 -151 67 -33 0 -12 17 33 27 75 17 195 49 238 63 93 31 130 44 139 50 6 4 21 11 35 15 24 8 62 24 206 90 401 185 793 625 867 975 50 239 50 272 -10 525 -31 131 -41 154 -115 266 -140 213 -193 264 -406 394 -72 44 -131 82 -132 85 -1 20 280 160 385 192 120 36 192 50 273 53 101 3 132 17 132 61 0 53 -59 64 -195 39 -151 -28 -173 -34 -261 -71 -49 -20 -123 -49 -164 -65 -41 -17 -123 -54 -182 -84 l-107 -54 -68 28 c-84 35 -207 89 -277 122 -22 11 -69 26 -105 34 -177 42 -240 56 -296 65 -54 8 -142 25 -215 40 -25 5 -206 13 -402 16 -197 4 -358 9 -358 11 0 2 10 20 23 41 47 75 148 365 186 535 34 150 0 456 -72 647 -41 106 -50 124 -100 191 -26 35 -69 93 -96 129 -26 36 -91 111 -145 168 -53 57 -96 105 -96 107 0 12 212 105 270 119 36 9 103 26 150 37 239 59 403 79 570 69 74 -4 144 -11 156 -15 14 -4 30 1 51 19 40 34 34 60 -21 88 -55 29 -381 32 -455 4 -24 -9 -57 -16 -74 -16 -17 0 -44 -4 -61 -10 -17 -5 -67 -17 -111 -27 -44 -9 -123 -32 -175 -51 -52 -18 -142 -50 -200 -69 -58 -19 -124 -44 -148 -55 -53 -24 -43 -28 -215 85 -219 144 -228 148 -497 247 -63 23 -129 49 -147 56 -47 21 -225 64 -348 85 -59 10 -127 22 -210 37 -139 26 -219 35 -380 43 -288 15 -477 18 -540 9z m2276 -785 c83 -85 219 -315 219 -370 0 -18 16 -88 38 -170 25 -88 23 -390 -2 -500 -169 -736 -884 -1436 -1691 -1655 -243 -67 -322 -79 -585 -90 -275 -11 -341 -5 -371 35 -12 17 -51 57 -86 91 -34 33 -63 64 -63 68 0 5 24 39 54 75 29 36 90 120 135 186 46 66 102 145 127 175 24 30 83 111 130 180 48 69 114 159 149 200 34 41 90 116 124 165 65 93 107 148 178 231 22 27 74 90 115 140 221 274 491 570 645 706 244 216 312 273 393 326 47 30 112 76 145 101 50 38 266 159 286 161 4 0 31 -25 60 -55z m1104 -1834 c145 -10 238 -23 305 -41 91 -24 157 -43 230 -65 41 -13 107 -33 145 -45 75 -23 217 -91 222 -106 2 -5 -18 -22 -43 -38 -262 -166 -678 -538 -999 -895 -66 -73 -155 -172 -198 -220 -44 -47 -113 -131 -155 -186 -42 -55 -122 -152 -177 -215 -56 -63 -129 -155 -164 -205 -61 -86 -170 -230 -257 -339 l-40 -51 -81 -7 c-111 -9 -183 -56 -208 -136 -10 -34 20 -107 57 -135 l30 -24 -64 -85 c-164 -222 -195 -264 -216 -302 -13 -23 -50 -77 -83 -121 -33 -44 -88 -124 -124 -178 -35 -53 -88 -126 -118 -161 -30 -35 -69 -90 -87 -121 -63 -111 -140 -215 -158 -215 -5 0 -22 28 -38 62 -34 71 -65 132 -124 241 -23 43 -55 113 -70 155 -16 42 -51 125 -79 185 -28 59 -51 111 -51 114 0 10 -44 130 -82 223 -17 41 -44 116 -60 165 -16 50 -36 104 -43 120 -8 17 -40 107 -71 200 -31 94 -59 175 -63 180 -4 6 -20 55 -35 110 -16 55 -54 163 -86 240 -32 77 -62 154 -66 170 -4 17 -30 80 -59 140 -28 61 -60 130 -71 155 -41 99 -126 262 -158 303 l-34 44 162 7 c88 4 199 11 246 17 47 6 103 11 125 10 41 0 212 24 275 39 19 4 71 16 115 25 44 9 100 22 125 29 25 8 63 19 85 24 175 48 291 91 475 179 63 30 143 69 178 85 74 35 337 209 437 289 73 59 188 176 290 297 52 61 65 71 100 76 22 3 69 9 105 15 74 10 461 6 655 -8z m1106 -375 c46 -36 102 -88 124 -117 22 -28 65 -83 97 -122 119 -148 163 -292 163 -542 0 -83 -5 -160 -13 -190 -56 -213 -62 -234 -101 -316 -30 -64 -38 -78 -95 -174 -37 -62 -159 -208 -246 -295 -106 -107 -412 -340 -444 -340 -3 0 -52 -22 -108 -48 -111 -52 -167 -74 -238 -90 -137 -33 -150 -34 -202 -23 -53 12 -102 21 -213 40 -190 32 -362 36 -580 12 -38 -4 -72 -6 -74 -5 -9 8 146 250 252 391 37 50 88 126 112 168 50 88 141 223 201 298 23 29 68 90 101 137 177 252 220 311 314 432 295 373 643 722 833 835 30 17 25 19 117 -51z m-5173 -356 c-46 -70 -50 -71 -66 -26 -20 54 6 84 75 85 l31 1 -40 -60z m427 -208 c-6 -7 -95 19 -101 29 -3 5 3 20 13 35 l17 27 38 -44 c20 -24 35 -45 33 -47z m2394 -1642 c-27 -48 -49 -52 -49 -10 0 30 20 49 53 50 17 0 17 -3 -4 -40z m1016 -106 c37 -16 -60 -22 -262 -16 -179 5 -239 14 -160 25 52 8 400 0 422 -9z"></path></g></svg>